<?xml version="1.0" encoding="utf-8"?>
<!-- Generator: Adobe Illustrator 21.1.0, SVG Export Plug-In . SVG Version: 6.00 Build 0)  -->
<svg version="1.1"
	 id="Layer_1" xmlns:cc="http://creativecommons.org/ns#" xmlns:dc="http://purl.org/dc/elements/1.1/" xmlns:inkscape="http://www.inkscape.org/namespaces/inkscape" xmlns:rdf="http://www.w3.org/1999/02/22-rdf-syntax-ns#" xmlns:sodipodi="http://sodipodi.sourceforge.net/DTD/sodipodi-0.dtd" xmlns:svg="http://www.w3.org/2000/svg"
	 xmlns="http://www.w3.org/2000/svg" xmlns:xlink="http://www.w3.org/1999/xlink" x="0px" y="0px" viewBox="0 0 100 77.3"
	 style="enable-background:new 0 0 100 77.3;" xml:space="preserve">
<g transform="translate(0,-952.36218)">
	<path d="M50,959.1c-0.6,0-1.2,0.2-1.8,0.6l-38,30c-1,1-1.7,3.1-0.7,4.3c1,1.3,3.1,1.5,4.3,0.4L50,965.9l36.2,28.5
		c1.2,1.1,3.4,0.9,4.3-0.4c0.8-1.2,0.6-3.4-0.7-4.3L76,978.8v-16.7c0-1.7-1.3-3-3-3h-8c-1.7,0-3,1.3-3,3v5.7l-10.2-8
		C51.2,959.3,50.6,959.1,50,959.1z M68,965.1h2v9l-2-1.6V965.1z M40.3,1019.1H26v-30.7l-6,4.8v29c0,1.7,1.3,3,3,3h17.3
		c2.2,0,3.7-2.3,2.7-4.3h0C42.5,1019.7,41.5,1019.1,40.3,1019.1z M59.7,1025.1H77c1.7,0,3-1.3,3-3v-29l-6-4.8v30.7H59.7
		c-1.1,0-2.2,0.6-2.7,1.7h0C56,1022.7,57.4,1025.1,59.7,1025.1z"/>
</g>
<g>
	<path d="M63.9,47.1v9.3c0,0.7-0.3,1.4-0.8,1.9s-1.2,0.8-1.9,0.8H53v6.5c0,0.7-0.3,1.4-0.8,1.9c-0.5,0.5-1.2,0.8-1.9,0.8
		c-0.8,0-1.4-0.3-1.9-0.8c-0.5-0.5-0.8-1.2-0.8-1.9v-6.6h-8.1c-0.7,0-1.4-0.3-1.9-0.8c-0.5-0.5-0.8-1.2-0.8-1.9s0.3-1.4,0.8-1.9
		c0.5-0.5,1.2-0.8,1.9-0.8h19v-3.9H39.5c-0.7,0-1.4-0.3-1.9-0.8c-0.5-0.5-0.8-1.1-0.8-1.9v-9.3c0-0.7,0.3-1.4,0.8-1.9
		c0.5-0.5,1.2-0.8,1.9-0.8h8v-6.5c0-0.7,0.3-1.4,0.8-1.9s1.2-0.8,2-0.8c0.7,0,1.3,0.3,1.9,0.8c0.5,0.5,0.8,1.2,0.8,1.9v6.5h8.2
		c0.7,0,1.4,0.3,1.9,0.8c0.5,0.5,0.8,1.2,0.8,1.9c0,0.7-0.3,1.4-0.8,1.9c-0.5,0.5-1.2,0.8-1.9,0.8h-19v3.8h18.9
		c0.7,0,1.4,0.3,1.9,0.8C63.7,45.8,63.9,46.4,63.9,47.1z"/>
</g>
</svg>
