<?xml version="1.0" encoding="utf-8"?>
<!-- Generator: Adobe Illustrator 21.1.0, SVG Export Plug-In . SVG Version: 6.00 Build 0)  -->
<svg version="1.1"
	 id="Layer_1" xmlns:cc="http://creativecommons.org/ns#" xmlns:dc="http://purl.org/dc/elements/1.1/" xmlns:inkscape="http://www.inkscape.org/namespaces/inkscape" xmlns:rdf="http://www.w3.org/1999/02/22-rdf-syntax-ns#" xmlns:sodipodi="http://sodipodi.sourceforge.net/DTD/sodipodi-0.dtd" xmlns:svg="http://www.w3.org/2000/svg"
	 xmlns="http://www.w3.org/2000/svg" xmlns:xlink="http://www.w3.org/1999/xlink" x="0px" y="0px" viewBox="0 0 100 77.3"
	 style="enable-background:new 0 0 100 77.3;" xml:space="preserve">
<g transform="translate(0,-952.36218)">
	<path d="M50,959.1c-0.6,0-1.2,0.2-1.8,0.6l-38,30c-1,1-1.7,3.1-0.7,4.3c1,1.3,3.1,1.5,4.3,0.4L50,965.9l36.2,28.5
		c1.2,1.1,3.4,0.9,4.3-0.4c0.8-1.2,0.6-3.4-0.7-4.3L76,978.8v-16.7c0-1.7-1.3-3-3-3h-8c-1.7,0-3,1.3-3,3v5.7l-10.2-8
		C51.2,959.3,50.6,959.1,50,959.1z M68,965.1h2v9l-2-1.6V965.1z M26,988.4l-6,4.8v29c0,1.7,1.3,3,3,3h19c1.7,0,3-1.3,3-3v-17h10v17
		c0,1.7,1.3,3,3,3h19c1.7,0,3-1.3,3-3v-29l-6-4.8v30.7H61v-17c0-1.7-1.3-3-3-3H42c-1.7,0-3,1.3-3,3v17H26V988.4z"/>
</g>
</svg>
