<svg xmlns:dc="http://purl.org/dc/elements/1.1/" xmlns:cc="http://creativecommons.org/ns#" xmlns:rdf="http://www.w3.org/1999/02/22-rdf-syntax-ns#" xmlns:svg="http://www.w3.org/2000/svg" xmlns="http://www.w3.org/2000/svg" xmlns:sodipodi="http://sodipodi.sourceforge.net/DTD/sodipodi-0.dtd" xmlns:inkscape="http://www.inkscape.org/namespaces/inkscape" version="1.1" x="0px" y="0px" viewBox="0 0 100 125"><g transform="translate(0,-952.36218)"><path style="text-indent:0;text-transform:none;direction:ltr;block-progression:tb;baseline-shift:baseline;color:#000000;enable-background:accumulate;" d="m 49.994489,969.36243 c -0.61421,0.011 -1.23798,0.22983 -1.84375,0.625 L 10.15074,999.98747 c -0.9761605,0.96923 -1.6623805,3.05623 -0.6562505,4.34373 1.0061305,1.2875 3.1221905,1.4603 4.3437505,0.375 l 36.156249,-28.53127 36.15625,28.53127 c 1.22156,1.0853 3.38223,0.9462 4.34375,-0.375 0.84367,-1.1592 0.63613,-3.3775 -0.65625,-4.34373 l -13.84375,-10.93754 0,-16.6875 a 3.0003,3.0003 0 0 0 -3,-3 l -8,0 a 3.0003,3.0003 0 0 0 -3,3 l 0,5.65625 -10.15625,-8.03125 c -0.62489,-0.43912 -1.22954,-0.63599 -1.84375,-0.625 z m 18,6 2,0 0,8.96875 -2,-1.59375 0,-7.375 z m -42,23.28124 -6,4.75003 0,28.9687 a 3.0003,3.0003 0 0 0 3,3 l 19,0 a 3.0003,3.0003 0 0 0 3,-3 l 0,-16.9999 10,0 0,16.9999 a 3.0003,3.0003 0 0 0 3,3 l 19,0 a 3.0003,3.0003 0 0 0 3,-3 l 0,-28.9687 -6,-4.75003 0,30.71873 -13,0 0,-16.9999 a 3.0003,3.0003 0 0 0 -3,-3 l -16,0 a 3.0003,3.0003 0 0 0 -3,3 l 0,16.9999 -13,0 0,-30.71873 z" fill="#000000" fill-opacity="1" stroke="none" marker="none" visibility="visible" display="inline" overflow="visible"/></g><text x="0" y="115" fill="#000000" font-size="5px" font-weight="bold" font-family="'Helvetica Neue', Helvetica, Arial-Unicode, Arial, Sans-serif">Created by il Capitano</text><text x="0" y="120" fill="#000000" font-size="5px" font-weight="bold" font-family="'Helvetica Neue', Helvetica, Arial-Unicode, Arial, Sans-serif">from the Noun Project</text></svg>