<svg xmlns="http://www.w3.org/2000/svg" xmlns:xlink="http://www.w3.org/1999/xlink" version="1.1" x="0px" y="0px" viewBox="0 0 100 125" enable-background="new 0 0 100 100" xml:space="preserve"><symbol id="a" viewBox="-31.917 -19 63.834 38"><polyline fill="none" stroke="#000000" stroke-width="3" stroke-linecap="round" stroke-linejoin="round" stroke-miterlimit="10" points="   -30.417,17.5 -16.917,17.5 -5.917,-6.5 29.583,-6.5  "/><circle fill="none" stroke="#000000" stroke-width="3" stroke-linecap="round" stroke-linejoin="round" stroke-miterlimit="10" cx="-4.417" cy="-13" r="4.5"/><circle fill="none" stroke="#000000" stroke-width="3" stroke-linecap="round" stroke-linejoin="round" stroke-miterlimit="10" cx="23.083" cy="-13" r="4.5"/><polyline fill="none" stroke="#000000" stroke-width="3" stroke-linecap="round" stroke-linejoin="round" stroke-miterlimit="10" points="   -8.417,0.667 24.75,0.667 30.417,14.334 -13.75,14.334  "/><line fill="none" stroke="#000000" stroke-width="2" stroke-linecap="round" stroke-linejoin="round" stroke-miterlimit="10" x1="-2.583" y1="9.973" x2="-2.583" y2="4.139"/><line fill="none" stroke="#000000" stroke-width="2" stroke-linecap="round" stroke-linejoin="round" stroke-miterlimit="10" x1="8.417" y1="9.973" x2="8.417" y2="4.139"/><line fill="none" stroke="#000000" stroke-width="2" stroke-linecap="round" stroke-linejoin="round" stroke-miterlimit="10" x1="19.083" y1="9.973" x2="19.083" y2="4.139"/></symbol><path d="M162.871,33.125c0,9.837-7.975,24.438-17.813,24.438c-9.837,0-17.812-14.6-17.812-24.438s7.976-15.813,17.813-15.813  S162.871,23.288,162.871,33.125z"/><path d="M174.961,66.676c0.334,0.262,0.391,0.745,0.129,1.076l-6.006,7.644c-0.262,0.333-0.746,0.392-1.078,0.13l0,0  c-0.334-0.263-0.389-0.745-0.129-1.078l6.008-7.645C174.145,66.472,174.629,66.413,174.961,66.676L174.961,66.676z"/><path d="M174.736,58.839l-7.756,9.864c-0.457,0.581-0.748,1.24-0.896,1.919c-0.018,0.079-0.033,0.155-0.045,0.234  c-0.016,0.278,0.096,0.559,0.332,0.742c0.383,0.304,0.939,0.234,1.24-0.149c0.057-0.072,0.096-0.154,0.129-0.236  c0.039-0.103,0.055-0.211,0.055-0.314c0.115-0.54,0.359-1.069,0.734-1.543l7.205-9.169c1.188-1.512,3.234-1.883,4.578-0.826  c1.336,1.052,1.461,3.129,0.273,4.64l-7.205,9.166c-0.373,0.479-0.832,0.84-1.328,1.082c-0.1,0.023-0.199,0.065-0.287,0.127  c-0.076,0.047-0.145,0.108-0.205,0.183c-0.301,0.382-0.234,0.936,0.148,1.24c0.236,0.183,0.535,0.225,0.799,0.147  c0.074-0.031,0.148-0.068,0.221-0.104c0.623-0.303,1.193-0.741,1.654-1.323l7.75-9.865c1.605-2.04,1.252-4.997-0.791-6.605  C179.299,56.441,176.342,56.797,174.736,58.839z"/><path d="M175.756,51.1h-1.264c-7.912,0-14.326,6.414-14.326,14.326c0,7.913,6.414,14.327,14.326,14.327h1.264  c7.912,0,14.326-6.414,14.326-14.327C190.082,57.514,183.668,51.1,175.756,51.1z M175.629,76.878h-1.01  c-6.324,0-11.451-5.127-11.451-11.452c0-6.324,5.127-11.451,11.451-11.451h1.01c6.324,0,11.451,5.127,11.451,11.451  C187.08,71.751,181.953,76.878,175.629,76.878z"/><path d="M181.24,91.538c-0.076-0.499-0.223-0.97-0.435-1.408c-0.76-2.432-1.508-4.66-2.254-6.724h-2.67  c-0.154,0.007-0.303,0.031-0.459,0.031h-4.367c-6.104-0.804-13.926-4.071-15.383-15.246v-1.458v-2.546v-4.248  c-3.086-0.395-6.543-0.502-10.524-0.502c-19.554,0-28.542,3.629-36.235,31.818c-0.003,0.011-0.006,0.021-0.008,0.031  c-0.064,0.318-0.1,0.647-0.1,0.984c0,2.715,2.201,4.916,4.916,4.916h62.678c2.715,0,4.916-2.201,4.916-4.916  C181.314,92.021,181.277,91.779,181.24,91.538z"/><path d="M175.254,89.438"/><path d="M350.83,32.916c0,9.837-7.975,24.438-17.813,24.438c-9.837,0-17.811-14.6-17.811-24.438s7.975-15.813,17.813-15.813  C342.855,17.104,350.83,23.079,350.83,32.916z"/><path d="M363.781,50.891h-1.264c-7.914,0-14.328,6.414-14.328,14.326c0,7.913,6.414,14.327,14.328,14.327h1.264  c7.912,0,14.326-6.414,14.326-14.327C378.107,57.305,371.693,50.891,363.781,50.891z M363.654,76.669h-1.01  c-6.326,0-11.453-5.127-11.453-11.452c0-6.324,5.127-11.451,11.453-11.451h1.01c6.324,0,11.451,5.127,11.451,11.451  C375.105,71.542,369.978,76.669,363.654,76.669z"/><path d="M369.199,91.329c-0.076-0.499-0.223-0.97-0.435-1.408c-0.76-2.432-1.508-4.66-2.254-6.724h-2.67  c-0.154,0.007-0.303,0.031-0.459,0.031h-4.367c-6.104-0.804-13.926-4.071-15.383-15.246v-1.458v-2.546V59.73  c-3.086-0.395-6.543-0.502-10.525-0.502c-19.554,0-28.542,3.629-36.235,31.818c-0.003,0.011-0.006,0.021-0.008,0.031  c-0.064,0.318-0.1,0.647-0.1,0.984c0,2.715,2.201,4.916,4.916,4.916h62.678c2.715,0,4.916-2.201,4.916-4.916  C369.273,91.812,369.236,91.57,369.199,91.329z"/><path d="M363.213,89.229"/><path d="M364.732,66.802h4.008c0.875,0,1.584-0.71,1.584-1.585c0-0.874-0.709-1.584-1.584-1.584h-4.008h-3.168h-4.008  c-0.875,0-1.584,0.71-1.584,1.584c0,0.875,0.709,1.585,1.584,1.585h4.008H364.732z"/><path d="M509.333,125.327c0,9.837-7.975,24.438-17.813,24.438c-9.837,0-17.811-14.6-17.811-24.438s7.975-15.813,17.812-15.813  C501.358,109.514,509.333,115.489,509.333,125.327z"/><path d="M522.284,143.301h-1.264c-7.914,0-14.328,6.414-14.328,14.326c0,7.913,6.414,14.327,14.328,14.327h1.264  c7.912,0,14.326-6.414,14.326-14.327C536.61,149.715,530.196,143.301,522.284,143.301z M522.157,169.079h-1.01  c-6.326,0-11.453-5.127-11.453-11.452c0-6.324,5.127-11.451,11.453-11.451h1.01c6.324,0,11.451,5.127,11.451,11.451  C533.608,163.953,528.481,169.079,522.157,169.079z"/><path d="M527.702,183.74c-0.076-0.499-0.223-0.97-0.435-1.408c-0.76-2.432-1.508-4.66-2.254-6.724h-2.67  c-0.154,0.007-0.303,0.031-0.459,0.031h-4.367c-6.104-0.804-13.926-4.071-15.383-15.246v-1.458v-2.546v-4.248  c-3.086-0.395-6.543-0.502-10.525-0.502c-19.554,0-28.542,3.629-36.235,31.818c-0.003,0.011-0.006,0.021-0.008,0.031  c-0.064,0.318-0.1,0.648-0.1,0.984c0,2.715,2.201,4.916,4.916,4.916h62.678c2.715,0,4.916-2.201,4.916-4.916  C527.776,184.222,527.739,183.981,527.702,183.74z"/><path d="M521.716,181.639"/><path d="M252.705,32.916c0,9.837-7.976,24.438-17.813,24.438c-9.838,0-17.813-14.6-17.813-24.438s7.976-15.813,17.813-15.813  C244.73,17.104,252.705,23.079,252.705,32.916z"/><path d="M265.655,50.891h-1.264c-7.913,0-14.327,6.414-14.327,14.326c0,7.913,6.414,14.327,14.327,14.327h1.264  c7.912,0,14.326-6.414,14.326-14.327C279.981,57.305,273.567,50.891,265.655,50.891z M265.528,76.669h-1.01  c-6.325,0-11.452-5.127-11.452-11.452c0-6.324,5.127-11.451,11.452-11.451h1.01c6.324,0,11.451,5.127,11.451,11.451  C276.979,71.542,271.852,76.669,265.528,76.669z"/><path d="M271.073,91.329c-0.075-0.499-0.223-0.97-0.435-1.408c-0.76-2.432-1.508-4.66-2.254-6.724h-2.669  c-0.154,0.007-0.304,0.031-0.46,0.031h-4.366c-6.105-0.804-13.926-4.071-15.384-15.246v-1.458v-2.546V59.73  c-3.086-0.395-6.542-0.502-10.524-0.502c-19.553,0-28.542,3.629-36.234,31.818c-0.004,0.011-0.006,0.021-0.009,0.031  c-0.064,0.318-0.099,0.647-0.099,0.984c0,2.715,2.201,4.916,4.916,4.916h62.677c2.715,0,4.916-2.201,4.916-4.916  C271.147,91.812,271.11,91.57,271.073,91.329z"/><path d="M265.088,89.229"/><path d="M270.614,63.633h-4.008v-4.007c0-0.876-0.709-1.585-1.584-1.585s-1.584,0.709-1.584,1.585v4.007h-4.008  c-0.875,0-1.584,0.71-1.584,1.584c0,0.875,0.709,1.585,1.584,1.585h4.008v4.008c0,0.874,0.709,1.584,1.584,1.584  s1.584-0.71,1.584-1.584v-4.008h4.008c0.875,0,1.584-0.71,1.584-1.585C272.198,64.343,271.489,63.633,270.614,63.633z"/><path d="M253.529,182.526"/><path fill="#000000" d="M472.677,34.111V22.337h-59.064c0,0-13.828,0-18.127,19.251c0,0-0.561,3.364,2.242,2.429  c4.168-1.39,2.899-11.961,20-10.373c0,0,1.867,35.184-14.018,50.93c0,0-6.346,5.24,0.373,10.467  c3.785,2.943,12.336,1.682,15.326-10.467c2.988-12.147,5.199-50.834,5.199-50.834l17.134-0.029c0,0-11.274,62.757,14.859,62.826  c13.457,0.035,16.072-23.549,16.072-23.549l-2.367,0.008c0,0-7.674,18.18-14.547,8.869c-8.691-11.775-2.338-47.754-2.338-47.754  H472.677z"/><path d="M541.962,32.916c0,9.838-7.975,24.438-17.813,24.438c-9.837,0-17.812-14.6-17.812-24.438  c0-9.837,7.976-15.813,17.813-15.813S541.962,23.079,541.962,32.916z"/><path d="M560.331,91.329c-0.076-0.499-0.223-0.97-0.436-1.408c-0.76-2.432-1.508-4.66-2.254-6.724h-2.67  c-0.154,0.007-0.303,0.031-0.459,0.031h-4.367c-6.104-0.804-13.926-4.071-15.383-15.246v-1.458v-2.546V59.73  c-3.086-0.395-6.543-0.502-10.524-0.502c-19.554,0-28.542,3.629-36.235,31.818c-0.003,0.011-0.006,0.021-0.008,0.031  c-0.064,0.318-0.1,0.647-0.1,0.984c0,2.715,2.201,4.916,4.916,4.916h62.678c2.715,0,4.916-2.201,4.916-4.916  C560.405,91.812,560.368,91.57,560.331,91.329z"/><path d="M554.345,89.229"/><path d="M554.945,50.334h-1.264c-7.914,0-14.328,6.414-14.328,14.326c0,7.913,6.414,14.327,14.328,14.327h1.264  c7.912,0,14.326-6.414,14.326-14.327C569.271,56.748,562.857,50.334,554.945,50.334z M553.809,53.209h1.01  c2.437,0,4.691,0.767,6.548,2.064l-16.317,16.758c-1.679-1.993-2.693-4.563-2.693-7.371  C542.355,58.336,547.482,53.209,553.809,53.209z M554.818,76.112h-1.01c-2.435,0-4.687-0.765-6.542-2.059l16.316-16.757  c1.675,1.991,2.686,4.559,2.686,7.363C566.269,70.985,561.143,76.112,554.818,76.112z"/><path d="M639.299,32.542c0,9.838-7.975,24.438-17.813,24.438s-17.813-14.6-17.813-24.438c0-9.837,7.977-15.813,17.813-15.813  C631.324,16.729,639.299,22.705,639.299,32.542z"/><path d="M652.281,49.96h-1.264c-7.914,0-14.328,6.414-14.328,14.326c0,7.913,6.414,14.327,14.328,14.327h1.264  c7.912,0,14.326-6.414,14.326-14.327C666.607,56.374,660.193,49.96,652.281,49.96z M652.154,75.738h-1.01  c-6.326,0-11.453-5.127-11.453-11.452c0-6.324,5.127-11.451,11.453-11.451h1.01c6.324,0,11.451,5.127,11.451,11.451  C663.605,70.611,658.478,75.738,652.154,75.738z"/><path d="M657.668,90.955c-0.076-0.499-0.223-0.97-0.436-1.408c-0.76-2.432-1.508-4.66-2.254-6.724h-2.67  c-0.154,0.007-0.303,0.031-0.459,0.031h-4.367c-6.103-0.804-13.926-4.071-15.383-15.246V66.15v-2.546v-4.248  c-3.086-0.395-6.543-0.502-10.525-0.502c-19.553,0-28.541,3.629-36.234,31.818c-0.004,0.011-0.006,0.021-0.008,0.031  c-0.064,0.318-0.1,0.647-0.1,0.984c0,2.715,2.201,4.916,4.916,4.916h62.678c2.715,0,4.916-2.201,4.916-4.916  C657.742,91.438,657.705,91.196,657.668,90.955z"/><path d="M738.348,189.521"/><path d="M647.51,71.788c1.723,0.231,5.676-1.113,8.053-3.588c2.475-2.378,3.82-6.331,3.588-8.054c0,0,0.227-1.848-1.844-2.841  c0,0-1.244-1.967-2.469,1.57c0,0-1.279,3.548,1.307,2.844c0,0-0.394,2.582-2.398,4.663c-2.082,2.005-4.664,2.399-4.664,2.399  c0.705-2.586-2.844-1.307-2.844-1.307c-3.537,1.224-1.57,2.468-1.57,2.468C645.662,72.013,647.51,71.788,647.51,71.788z"/><path d="M733.965,31.876c0,9.838-7.975,24.438-17.813,24.438c-9.838,0-17.813-14.6-17.813-24.438s7.977-15.813,17.813-15.813  C725.99,16.063,733.965,22.038,733.965,31.876z"/><path d="M746.806,49.294h-1.252c-7.843,0-14.198,6.414-14.198,14.326c0,7.913,6.355,14.327,14.198,14.327h1.252  c7.84,0,14.195-6.414,14.195-14.327C761.001,55.708,754.646,49.294,746.806,49.294z M746.679,75.072h-1  c-6.269,0-11.349-5.127-11.349-11.452c0-6.324,5.08-11.451,11.349-11.451h1c6.268,0,11.348,5.127,11.348,11.451  C758.026,69.945,752.946,75.072,746.679,75.072z"/><path d="M752.335,90.289c-0.076-0.499-0.223-0.97-0.436-1.408c-0.76-2.432-1.508-4.66-2.254-6.724h-2.67  c-0.154,0.007-0.303,0.031-0.459,0.031h-4.367c-6.104-0.804-13.927-4.071-15.384-15.246v-1.458v-2.546V58.69  c-3.086-0.395-6.543-0.502-10.525-0.502c-19.553,0-28.541,3.629-36.234,31.818c-0.004,0.011-0.006,0.021-0.008,0.031  c-0.064,0.318-0.1,0.647-0.1,0.984c0,2.715,2.201,4.916,4.916,4.916h62.679c2.715,0,4.916-2.201,4.916-4.916  C752.409,90.771,752.372,90.53,752.335,90.289z"/><path d="M746.349,88.188"/><path d="M754.54,66.308c0,0.942-0.766,1.708-1.709,1.708h-12.578c-0.942,0-1.708-0.766-1.708-1.708l0,0  c0-0.943,0.766-1.708,1.708-1.708h12.578C753.774,64.6,754.54,65.364,754.54,66.308L754.54,66.308z"/><path d="M749.888,60.501c0,0.943-0.764,1.709-1.709,1.709h-7.607c-0.942,0-1.708-0.766-1.708-1.709l0,0  c0-0.942,0.766-1.708,1.708-1.708h7.607C749.124,58.793,749.888,59.559,749.888,60.501L749.888,60.501z"/><path d="M744.47,160.39c-0.005-1.063,0.953-1.983,2.001-2.434c-0.176-0.588-0.413-1.15-0.703-1.677  c-1.051,0.422-2.365,0.453-3.113-0.289c-0.749-0.743-0.728-2.06-0.31-3.114c-0.529-0.287-1.093-0.52-1.682-0.691  c-0.449,1.034-1.357,1.974-2.406,1.974c-1.049,0-1.957-0.939-2.408-1.974c-0.59,0.172-1.154,0.404-1.684,0.692  c0.412,1.047,0.434,2.348-0.305,3.089c-0.744,0.747-2.059,0.723-3.111,0.306c-0.291,0.527-0.529,1.089-0.705,1.677  c1.035,0.449,1.976,1.356,1.978,2.406c0,1.062-0.96,1.977-2.008,2.424c0.169,0.59,0.398,1.154,0.684,1.686  c1.055-0.422,2.375-0.451,3.121,0.297c0.756,0.755,0.719,2.096,0.283,3.153c0.527,0.293,1.088,0.531,1.676,0.709  c0.443-1.051,1.363-2.017,2.428-2.016c1.07,0.002,1.993,0.982,2.432,2.044c0.59-0.171,1.155-0.4,1.685-0.688  c-0.43-1.059-0.463-2.393,0.293-3.146c0.757-0.754,2.099-0.713,3.156-0.275c0.303-0.547,0.544-1.131,0.721-1.743  C745.44,162.362,744.476,161.45,744.47,160.39z M738.256,163.97c-1.963,0-3.555-1.592-3.555-3.556c0-1.962,1.592-3.554,3.555-3.554  c1.963,0,3.555,1.592,3.555,3.554C741.81,162.378,740.219,163.97,738.256,163.97z"/><path d="M738.348,189.189"/><path d="M725.965,128.877c0,9.838-7.975,24.438-17.813,24.438c-9.838,0-17.813-14.6-17.813-24.438  c0-9.838,7.977-15.813,17.813-15.813C717.99,113.064,725.965,119.039,725.965,128.877z"/><path d="M738.806,146.295h-1.252c-7.843,0-14.198,6.414-14.198,14.326c0,7.913,6.355,14.327,14.198,14.327h1.252  c7.84,0,14.195-6.414,14.195-14.327C753.001,152.709,746.646,146.295,738.806,146.295z M738.679,172.073h-1  c-6.269,0-11.349-5.127-11.349-11.452c0-6.324,5.08-11.451,11.349-11.451h1c6.268,0,11.348,5.127,11.348,11.451  C750.026,166.946,744.946,172.073,738.679,172.073z"/><path d="M744.335,187.29c-0.076-0.499-0.223-0.97-0.436-1.408c-0.76-2.432-1.508-4.66-2.254-6.724h-2.67  c-0.154,0.007-0.303,0.031-0.459,0.031h-4.367c-6.104-0.804-13.927-4.071-15.384-15.246v-1.458v-2.546v-4.248  c-3.086-0.395-6.543-0.502-10.525-0.502c-19.553,0-28.541,3.629-36.234,31.818c-0.004,0.011-0.006,0.021-0.008,0.031  c-0.064,0.318-0.1,0.647-0.1,0.984c0,2.715,2.201,4.916,4.916,4.916h62.679c2.715,0,4.916-2.201,4.916-4.916  C744.409,187.773,744.372,187.531,744.335,187.29z"/><path d="M738.349,185.189"/><use xlink:href="#a" width="63.834" height="38" x="-31.917" y="-19" transform="matrix(1.3864 0 0 -1.3864 585.2324 155.1895)" overflow="visible"/><path d="M523.734,152.623h-6.232c-0.315,0-0.57,0.255-0.57,0.57c0,0.315,0.255,0.57,0.57,0.57h5.804l-4.792,4.792  c-1.188,1.188-1.187,3.121,0.001,4.309l0.701,0.701c0.253,0.253,0.663,0.253,0.916,0c0.253-0.253,0.253-0.663,0-0.916l-0.701-0.701  c-0.683-0.683-0.683-1.794-0.001-2.477l4.793-4.793v5.805c0,0.315,0.255,0.57,0.57,0.57c0.315,0,0.57-0.255,0.57-0.57l0-6.232  C525.362,153.353,524.631,152.623,523.734,152.623z"/><g><rect x="334.491" y="168.892" width="23.303" height="23.303"/><path d="M393.744,117.566c0.264,0,0.528-0.101,0.727-0.299c1.612-1.611,3.643-2.685,5.873-3.105   c0.542-0.103,0.899-0.625,0.797-1.168c-0.102-0.543-0.625-0.897-1.168-0.798c-2.627,0.496-5.019,1.76-6.934,3.675l0.699,0.715   l-0.707-0.707c-0.391,0.391-0.378,1.011,0.013,1.401C393.236,117.471,393.489,117.566,393.744,117.566z"/><path d="M400.366,136.324c-2.232-0.415-4.264-1.485-5.878-3.094c-0.391-0.389-1.023-0.388-1.414,0.002   c-0.391,0.392-0.389,1.024,0.002,1.415c1.901,1.894,4.295,3.154,6.925,3.643c0.061,0.012,0.123,0.017,0.184,0.017   c0.473,0,0.893-0.336,0.982-0.817C401.267,136.947,400.909,136.426,400.366,136.324z"/><path d="M415.486,122.759c-0.103-0.542-0.62-0.899-1.169-0.796c-0.542,0.103-0.898,0.626-0.796,1.168   c0.131,0.689,0.197,1.399,0.198,2.108c0,0.697-0.064,1.398-0.193,2.086c-0.101,0.543,0.257,1.065,0.8,1.166   c0.063,0.012,0.124,0.017,0.185,0.017c0.473,0,0.893-0.336,0.982-0.817c0.15-0.808,0.227-1.632,0.227-2.453   C415.718,124.405,415.64,123.571,415.486,122.759z"/><path d="M404.56,136.317c-0.543,0.104-0.899,0.627-0.796,1.169c0.092,0.48,0.511,0.813,0.981,0.813   c0.062,0,0.125-0.006,0.188-0.018c2.622-0.499,5.007-1.763,6.859-3.619c0.013-0.012,0.038-0.036,0.051-0.048l-1.427-1.402   C408.81,134.82,406.785,135.894,404.56,136.317z"/><path d="M404.906,112.193c-0.539-0.102-1.065,0.255-1.167,0.798c-0.103,0.543,0.255,1.065,0.798,1.167   c2.229,0.418,4.261,1.491,5.875,3.102c0.194,0.195,0.45,0.292,0.706,0.292c0.256,0,0.513-0.098,0.708-0.293   c0.39-0.391,0.39-1.024-0.002-1.414C409.925,113.949,407.533,112.686,404.906,112.193z"/><path d="M391.242,126.24v-2h-0.029c0.032-0.358,0.079-0.715,0.144-1.069c0.101-0.543-0.258-1.065-0.801-1.165   c-0.551-0.101-1.066,0.258-1.166,0.801c-0.088,0.473-0.141,0.953-0.178,1.433h-23.647v6.532l-7.76,7.76h-12.663v30.359h2v-28.359   h10.662l8.761,8.761l9.76-9.76l-8.76-8.76v-4.532h21.648c0.038,0.503,0.095,1.005,0.189,1.5c0.092,0.479,0.511,0.813,0.981,0.813   c0.062,0,0.125-0.006,0.189-0.018c0.542-0.104,0.898-0.627,0.795-1.17c-0.071-0.372-0.121-0.748-0.154-1.125H391.242z"/></g><g><path d="M290.983,164.029l-29.533-5.556c-0.602-0.113-1.101,0.467-0.898,1.045l9.949,28.351c0.203,0.578,0.955,0.719,1.354,0.255   l7-8.148c0.287-0.334,0.791-0.371,1.124-0.083l7.576,6.551c0.332,0.287,0.835,0.251,1.122-0.081l3.505-4.052   c0.288-0.332,0.251-0.835-0.081-1.122l-7.598-6.569c-0.332-0.287-0.369-0.788-0.083-1.12l7.02-8.171   C291.838,164.865,291.585,164.143,290.983,164.029z M271.998,167.533l5.864,1.104c0.602,0.113,0.855,0.836,0.456,1.3l-3.887,4.526   c-0.399,0.465-1.151,0.323-1.354-0.255l-1.976-5.63C270.898,168.001,271.397,167.42,271.998,167.533z"/><g><path d="M256.917,140.705l-5.923-0.623c-0.437-0.046-0.754-0.438-0.708-0.875l2.008-19.058c0.046-0.437,0.437-0.754,0.874-0.708    l5.923,0.623c0.437,0.046,0.754,0.438,0.708,0.875l-2.008,19.058C257.745,140.434,257.353,140.751,256.917,140.705z"/></g><g><path d="M265.45,150.815l-2.759-5.284c-0.203-0.39-0.052-0.871,0.338-1.074l16.999-8.854c0.389-0.203,0.87-0.052,1.073,0.337    l2.759,5.284c0.203,0.39,0.052,0.871-0.338,1.074l-16.999,8.854C266.133,151.355,265.653,151.204,265.45,150.815z"/></g><g><path d="M249.612,187.603l-5.913-0.774c-0.436-0.057-0.743-0.457-0.686-0.892l2.492-19.004c0.057-0.436,0.456-0.742,0.892-0.685    l5.913,0.774c0.436,0.057,0.743,0.457,0.686,0.892l-2.492,19.004C250.447,187.353,250.048,187.66,249.612,187.603z"/></g><g><path d="M220.659,167.254l-2.036-5.597c-0.15-0.413,0.063-0.869,0.475-1.019l18.006-6.566c0.413-0.151,0.87,0.062,1.02,0.475    l2.036,5.598c0.15,0.413-0.063,0.869-0.475,1.019l-18.007,6.566C221.266,167.88,220.81,167.667,220.659,167.254z"/></g><g><path d="M239.529,146.239l-14.14-12.938c-0.324-0.297-0.347-0.8-0.049-1.124l4.027-4.394c0.297-0.324,0.8-0.346,1.124-0.049    l14.14,12.938c0.324,0.297,0.347,0.8,0.049,1.124l-4.027,4.394C240.356,146.513,239.853,146.535,239.529,146.239z"/></g></g><g><path d="M656.003,266.086v-1.451h1.059c1.201,0,2.179-0.977,2.179-2.178v-8.6c0-1.201-0.977-2.179-2.179-2.179h-1.059v-2.145   c0-0.776-0.298-1.478-0.773-2.02c0.72-0.44,1.375-0.969,1.943-1.61c3.325-3.751,2.671-9.534,2.642-9.778l-0.133-1.1h-31.673   c-0.424-0.03-2.287-0.095-3.506,1.013c-0.65,0.59-1.001,1.401-1.026,2.422c-0.058,0.012-0.145,0.022-0.263,0.022l-2.462,0.001   c-0.175-0.003-1.808-0.024-3.001,1.13c-0.524,0.507-1.149,1.436-1.149,2.978v9.087h-0.931c-1.201,0-2.179,0.978-2.179,2.179v8.6   c0,1.201,0.978,2.178,2.179,2.178h1.059v1.451c0,10.828,8.809,19.637,19.637,19.637   C647.194,285.722,656.003,276.914,656.003,266.086z M656.003,254.177h0.737v7.957h-0.737V254.177z M616.73,262.134h-0.737v-7.957   h0.737V262.134z M619.102,242.59c0-0.537,0.124-0.92,0.378-1.173c0.367-0.364,1.001-0.447,1.231-0.436h2.503   c1.682,0,2.768-0.987,2.768-2.516c0-0.393,0.14-0.521,0.199-0.576c0.387-0.355,1.293-0.401,1.658-0.372l29.544,0.006   c0.004,1.62-0.258,4.672-2.088,6.729c-1.297,1.457-3.224,2.197-5.726,2.197h-29.756c-0.246,0-0.482,0.036-0.711,0.091V242.59z    M636.367,283.222L636.367,283.222c-9.45,0-17.137-7.688-17.137-17.137v-3.629v-8.6v-4.324c0-0.322,0.262-0.583,0.583-0.583h33.107   c0.321,0,0.583,0.262,0.583,0.583v4.324v8.6v3.629C653.503,275.535,645.816,283.222,636.367,283.222z"/><path d="M671.31,287.296h-33.285v11.383h2.5v-8.883h30.785c1.974,0,3.58,1.607,3.58,3.58v15.422h2.5v-15.422   C677.39,290.023,674.662,287.296,671.31,287.296z"/><path d="M595.989,293.376v15.422h2.5v-15.422c0-1.974,1.606-3.58,3.58-3.58h30.788v8.883h2.5v-11.383h-33.288   C598.717,287.296,595.989,290.023,595.989,293.376z"/><path d="M632.238,258.156c0-0.69-0.56-1.25-1.25-1.25h-6.431c-0.691,0-1.25,0.56-1.25,1.25s0.559,1.25,1.25,1.25h6.431   C631.679,259.406,632.238,258.846,632.238,258.156z"/><path d="M648.822,256.906h-6.431c-0.69,0-1.25,0.56-1.25,1.25s0.56,1.25,1.25,1.25h6.431c0.69,0,1.25-0.56,1.25-1.25   S649.513,256.906,648.822,256.906z"/><path d="M642.09,272.236l-3.512,0.874c-1.23,0.304-2.527,0.296-3.751-0.025l-3.208-0.844c-0.669-0.175-1.352,0.223-1.527,0.891   c-0.176,0.668,0.223,1.352,0.891,1.527l3.208,0.844c0.836,0.221,1.698,0.33,2.561,0.33c0.817,0,1.634-0.099,2.43-0.296l3.513-0.874   c0.67-0.166,1.078-0.845,0.911-1.515C643.437,272.477,642.763,272.066,642.09,272.236z"/></g><g><path d="M743.728,251.382h-1.058v-2.145c0-0.776-0.298-1.478-0.773-2.02c0.72-0.44,1.375-0.969,1.943-1.61   c3.325-3.751,2.671-9.534,2.642-9.778l-0.133-1.1h-31.673c-0.424-0.03-2.287-0.095-3.506,1.013c-0.65,0.59-1.002,1.401-1.026,2.422   c-0.058,0.012-0.145,0.022-0.263,0.022l-2.462,0c-0.175-0.003-1.808-0.024-3.001,1.13c-0.524,0.507-1.149,1.436-1.149,2.978v9.087   h-0.931c-1.201,0-2.179,0.978-2.179,2.179v8.6c0,1.201,0.978,2.178,2.179,2.178h1.059v1.451c0,10.828,8.809,19.637,19.637,19.637   c10.828,0,19.636-8.809,19.636-19.637v-1.451h1.058c1.201,0,2.179-0.977,2.179-2.178v-8.6   C745.906,252.359,744.929,251.382,743.728,251.382z M706.146,241.122c0.367-0.364,1.001-0.447,1.231-0.436h2.503   c1.682,0,2.768-0.987,2.768-2.516c0-0.393,0.14-0.521,0.199-0.576c0.387-0.354,1.293-0.401,1.658-0.372l29.544,0.006   c0.004,1.62-0.258,4.672-2.088,6.729c-1.297,1.458-3.224,2.197-5.725,2.197h-29.756c-0.246,0-0.482,0.036-0.711,0.091v-3.949   C705.768,241.758,705.892,241.374,706.146,241.122z M702.658,261.839v-7.957h0.737v7.957H702.658z M740.169,265.79   c0,9.449-7.688,17.137-17.136,17.137h0c-9.449,0-17.137-7.688-17.137-17.137v-3.629v-8.6v-4.324c0-0.322,0.262-0.583,0.583-0.583   h33.107c0.321,0,0.583,0.262,0.583,0.583v4.324v8.6V265.79z M743.406,261.839h-0.737v-7.957h0.737V261.839z"/><g><g><path d="M764.056,308.502h-2.5V293.08c0-1.974-1.606-3.58-3.58-3.58h-30.785v8.883h-2.5V287h33.285c3.353,0,6.08,2.728,6.08,6.08     V308.502z"/></g><g><path d="M685.155,308.502h-2.5V293.08c0-3.353,2.728-6.08,6.08-6.08h33.288v11.383h-2.5V289.5h-30.788     c-1.974,0-3.58,1.606-3.58,3.58V308.502z"/></g></g><g><path d="M711.222,259.11c-0.607,0-1.139-0.442-1.234-1.06c-0.105-0.683,0.364-1.32,1.046-1.425l1.475-0.226    c1.111-0.171,2.239-0.183,3.354-0.036l1.954,0.258c0.684,0.09,1.166,0.718,1.076,1.403c-0.09,0.684-0.71,1.167-1.403,1.076    l-1.955-0.258c-0.88-0.116-1.77-0.107-2.647,0.028l-1.476,0.226C711.348,259.106,711.285,259.11,711.222,259.11z"/></g><g><path d="M728.055,259.11c-0.606,0-1.139-0.442-1.233-1.06c-0.104-0.683,0.363-1.32,1.046-1.425l1.476-0.226    c1.113-0.171,2.241-0.182,3.353-0.036l1.954,0.258c0.685,0.09,1.166,0.718,1.076,1.403c-0.091,0.684-0.729,1.166-1.402,1.076    l-1.955-0.258c-0.878-0.116-1.768-0.107-2.646,0.028l-1.477,0.226C728.182,259.106,728.118,259.11,728.055,259.11z"/></g><g><path d="M717.965,275.538c-0.554,0-1.06-0.371-1.208-0.932c-0.175-0.668,0.223-1.352,0.891-1.527l3.208-0.844    c1.629-0.429,3.354-0.441,4.991-0.033l3.512,0.873c0.67,0.166,1.078,0.845,0.911,1.515c-0.167,0.669-0.842,1.077-1.515,0.911    l-3.512-0.873c-1.23-0.305-2.528-0.299-3.751,0.025l-3.208,0.844C718.177,275.525,718.07,275.538,717.965,275.538z"/></g></g><g><path d="M562.334,251.971h-1.059v-2.145c0-0.776-0.298-1.478-0.773-2.02c0.72-0.44,1.375-0.969,1.943-1.61   c3.325-3.751,2.671-9.534,2.642-9.778l-0.133-1.1h-31.673c-0.424-0.03-2.287-0.095-3.506,1.013c-0.65,0.59-1.001,1.401-1.026,2.422   c-0.058,0.012-0.145,0.022-0.263,0.022l-2.462,0.001c-0.175-0.003-1.808-0.024-3.001,1.13c-0.524,0.507-1.149,1.436-1.149,2.978   v9.087h-0.931c-1.201,0-2.179,0.978-2.179,2.179v8.6c0,1.201,0.978,2.178,2.179,2.178h1.059v1.451   c0,10.828,8.809,19.637,19.637,19.637c10.828,0,19.636-8.809,19.636-19.637v-1.451h1.059c1.201,0,2.179-0.977,2.179-2.178v-8.6   C564.513,252.948,563.535,251.971,562.334,251.971z M524.753,241.711c0.367-0.364,1.001-0.447,1.231-0.436h2.503   c1.682,0,2.768-0.987,2.768-2.516c0-0.393,0.14-0.521,0.199-0.576c0.387-0.354,1.293-0.401,1.658-0.372l29.544,0.006   c0.004,1.62-0.258,4.672-2.088,6.729c-1.297,1.458-3.224,2.197-5.726,2.197h-29.756c-0.246,0-0.482,0.036-0.711,0.091v-3.949   C524.374,242.347,524.498,241.963,524.753,241.711z M521.265,262.428v-7.957h0.737v7.957H521.265z M558.776,266.379   c0,9.449-7.688,17.137-17.136,17.137h0c-9.449,0-17.137-7.688-17.137-17.137v-3.629v-8.6v-4.324c0-0.322,0.262-0.584,0.583-0.584   h33.107c0.321,0,0.583,0.262,0.583,0.584v4.324v8.6V266.379z M562.013,262.428h-0.737v-7.957h0.737V262.428z"/><g><g><path d="M582.662,309.091h-2.5v-15.422c0-1.974-1.606-3.58-3.58-3.58h-30.785v8.883h-2.5v-11.383h33.285     c3.353,0,6.08,2.728,6.08,6.08V309.091z"/></g><g><path d="M503.761,309.091h-2.5v-15.422c0-3.353,2.728-6.08,6.08-6.08h33.288v11.383h-2.5v-8.883h-30.788     c-1.974,0-3.58,1.606-3.58,3.58V309.091z"/></g></g><g><g><path d="M536.26,259.699h-6.431c-0.69,0-1.25-0.56-1.25-1.25c0-0.69,0.56-1.25,1.25-1.25h6.431c0.69,0,1.25,0.56,1.25,1.25     C537.51,259.139,536.951,259.699,536.26,259.699z"/></g><g><path d="M554.095,259.699h-6.432c-0.69,0-1.25-0.56-1.25-1.25c0-0.69,0.56-1.25,1.25-1.25h6.432c0.69,0,1.25,0.56,1.25,1.25     C555.345,259.139,554.785,259.699,554.095,259.699z"/></g></g><g><path d="M547.786,275.348H536.26c-0.69,0-1.25-0.56-1.25-1.25s0.56-1.25,1.25-1.25h11.526c0.69,0,1.25,0.56,1.25,1.25    S548.477,275.348,547.786,275.348z"/></g></g><g><path fill="#000000" d="M67.677,84.229c-0.33,0-0.665-0.012-1.006-0.033c-4.072-0.277-8.149-1.477-13.229-3.889   c-8.977-4.387-16.8-10.514-23.273-18.221l-0.003-0.003c-5.176-6.188-8.959-12.514-11.246-18.8c-1.14-3.136-2.259-6.9-1.914-11.05   c0.118-2.617,1.235-5.026,3.226-6.893l5.054-5.056c2.96-2.962,7.019-2.976,10.097-0.031c0.946,0.878,1.873,1.829,2.77,2.748   c0.448,0.458,0.899,0.921,1.362,1.384l4,4c3.064,3.197,3.064,7.131,0.03,10.298c-0.885,0.885-1.74,1.715-2.595,2.545   c-0.726,0.705-1.452,1.409-2.178,2.129c0.867,1.954,2.142,3.911,4.076,6.275c4.046,4.921,7.958,8.471,12.306,11.168l0.093,0.061   c0.545,0.381,1.214,0.716,1.922,1.069c0.194,0.097,0.388,0.194,0.58,0.292l4.738-4.737c1.462-1.462,3.213-2.236,5.063-2.236   s3.602,0.773,5.064,2.235l8.2,8.201c3.059,3.059,3.059,7.169,0,10.229c-0.539,0.539-1.078,1.066-1.612,1.59   c-1.066,1.043-2.072,2.028-3.043,3.063C74.044,82.987,71.182,84.229,67.677,84.229z M33.233,59.515   c6.111,7.275,13.495,13.059,21.945,17.188c4.585,2.177,8.217,3.26,11.758,3.501c2.733,0.177,4.72-0.562,6.26-2.322   c1.075-1.148,2.159-2.21,3.208-3.236c0.525-0.514,1.055-1.031,1.583-1.561c1.517-1.517,1.517-3.055,0-4.571l-8.2-8.2   c-1.393-1.393-3.079-1.393-4.472,0l-5.101,5.101c-0.417,0.417-1.686,1.683-3.708,0.675c-0.411-0.223-0.769-0.401-1.126-0.58   c-0.791-0.396-1.607-0.804-2.379-1.337c-4.714-2.931-8.924-6.746-13.246-12.002c-2.375-2.902-3.887-5.312-4.907-7.815   c-0.744-1.859,0.233-3.038,0.799-3.529c0.839-0.838,1.678-1.652,2.517-2.467c0.841-0.816,1.682-1.632,2.522-2.473   c1.538-1.606,1.538-3.065-0.03-4.702l-3.97-3.97c-0.474-0.474-0.937-0.948-1.396-1.418c-0.903-0.925-1.756-1.799-2.651-2.63   c-1.08-1.033-2.719-1.859-4.524-0.052l-5.1,5.1c-1.279,1.2-1.941,2.624-2.017,4.276c-0.286,3.445,0.64,6.561,1.681,9.426   C24.806,47.764,28.357,53.685,33.233,59.515z"/></g><text x="0" y="115" fill="#000000" font-size="5px" font-weight="bold" font-family="'Helvetica Neue', Helvetica, Arial-Unicode, Arial, Sans-serif">Created by Charitha Surenaka</text><text x="0" y="120" fill="#000000" font-size="5px" font-weight="bold" font-family="'Helvetica Neue', Helvetica, Arial-Unicode, Arial, Sans-serif">from the Noun Project</text></svg>