<?xml version="1.0" encoding="utf-8"?>
<!-- Generator: Adobe Illustrator 21.1.0, SVG Export Plug-In . SVG Version: 6.00 Build 0)  -->
<svg version="1.1" id="Layer_1" xmlns="http://www.w3.org/2000/svg" xmlns:xlink="http://www.w3.org/1999/xlink" x="0px" y="0px"
	 viewBox="0 0 100 75.2" style="enable-background:new 0 0 100 75.2;" xml:space="preserve">
<g>
	<path d="M67.7,71.3c-0.3,0-0.7,0-1,0c-4.1-0.3-8.1-1.5-13.2-3.9c-9-4.4-16.8-10.5-23.3-18.2l0,0c-5.2-6.2-9-12.5-11.2-18.8
		c-1.1-3.1-2.3-6.9-1.9-11c0.1-2.6,1.2-5,3.2-6.9l5.1-5.1c3-3,7-3,10.1,0c0.9,0.9,1.9,1.8,2.8,2.7c0.4,0.5,0.9,0.9,1.4,1.4l4,4
		c3.1,3.2,3.1,7.1,0,10.3c-0.9,0.9-1.7,1.7-2.6,2.5c-0.7,0.7-1.5,1.4-2.2,2.1c0.9,2,2.1,3.9,4.1,6.3c4,4.9,8,8.5,12.3,11.2l0.1,0.1
		c0.5,0.4,1.2,0.7,1.9,1.1c0.2,0.1,0.4,0.2,0.6,0.3l4.7-4.7c1.5-1.5,3.2-2.2,5.1-2.2s3.6,0.8,5.1,2.2l8.2,8.2
		c3.1,3.1,3.1,7.2,0,10.2c-0.5,0.5-1.1,1.1-1.6,1.6c-1.1,1-2.1,2-3,3.1C74,70,71.2,71.3,67.7,71.3z M33.2,46.6
		c6.1,7.3,13.5,13.1,21.9,17.2c4.6,2.2,8.2,3.3,11.8,3.5c2.7,0.2,4.7-0.6,6.3-2.3c1.1-1.1,2.2-2.2,3.2-3.2c0.5-0.5,1.1-1,1.6-1.6
		c1.5-1.5,1.5-3.1,0-4.6l-8.2-8.2c-1.4-1.4-3.1-1.4-4.5,0l-5.1,5.1c-0.4,0.4-1.7,1.7-3.7,0.7c-0.4-0.2-0.8-0.4-1.1-0.6
		c-0.8-0.4-1.6-0.8-2.4-1.3c-4.7-2.9-8.9-6.7-13.2-12c-2.4-2.9-3.9-5.3-4.9-7.8c-0.7-1.9,0.2-3,0.8-3.5c0.8-0.8,1.7-1.7,2.5-2.5
		c0.8-0.8,1.7-1.6,2.5-2.5c1.5-1.6,1.5-3.1,0-4.7l-4-4c-0.5-0.5-0.9-0.9-1.4-1.4c-0.9-0.9-1.8-1.8-2.7-2.6c-1.1-1-2.7-1.9-4.5-0.1
		L23,15.3c-1.3,1.2-1.9,2.6-2,4.3c-0.3,3.4,0.6,6.6,1.7,9.4C24.8,34.8,28.4,40.7,33.2,46.6z"/>
</g>
</svg>
